<?xml version="1.0" standalone="no"?><!DOCTYPE svg PUBLIC "-//W3C//DTD SVG 1.1//EN"
        "http://www.w3.org/Graphics/SVG/1.1/DTD/svg11.dtd">
<svg class="icon" width="200px" height="200.00px" viewBox="0 0 1024 1024" version="1.1"
     xmlns="http://www.w3.org/2000/svg">
    <path fill="#89B6EC"
          d="M531.611512 5.259536c2.327228 1.582515 224.065541 152.526543 415.177528 137.771915 7.912576-0.605079 15.732063 1.908327 21.596679 6.981685a26.064957 26.064957 0 0 1 9.07619 19.548718v345.919214c0 2.699585 15.313162 386.366442-453.762973 508.406294a32.72083 32.72083 0 0 1-9.076191-0.558535H509.27012c-3.723565 0-389.950374-74.098949-462.559896-471.170641a25.273699 25.273699 0 0 1 0-4.561367V169.282586c0-7.54022 3.444298-14.754627 9.355457-19.827985a29.46271 29.46271 0 0 1 21.550134-6.655873c2.001416 0 203.073941 14.98735 420.297431-137.539192 10.007082-6.981685 23.737729-6.981685 33.74481 0z m-16.709499 54.317508C395.235934 143.031451 251.87867 190.83272 103.168782 196.836969v348.106809c35.280781 205.820071 196.511158 372.356528 410.616161 424.067541 412.989934-110.077899 407.730398-429.606344 406.706418-451.48229V197.34896c-172.214894 0-350.247859-103.003124-405.589348-137.771916zM469.288338 186.178264c8.378022 0 16.662955 0.418901 24.66862 1.117069l0.186178-0.093089c38.352722 3.723565 73.168058 15.871697 103.934016 36.304762 32.022661 21.270867 60.321757 52.083369 84.478387 91.832428h33.046642c7.772943-31.464127 36.863296-51.943736 67.815433-47.847813 30.952136 4.095922 54.177875 31.510671 54.177875 63.998778s-23.225738 59.902856-54.177875 63.998778c-30.952136 4.095922-60.04249-16.430232-67.815433-47.894358h-20.014163v176.124637h20.014163c6.981685-28.671453 31.743394-48.778705 60.135579-48.778705 32.255384 0 59.111599 25.599511 61.904273 58.971965 2.792674 33.372454-19.455629 63.440243-51.199022 69.21177-31.743394 5.724982-62.369718-14.754627-70.654652-47.149646h-20.107252v18.24547a32.255384 32.255384 0 0 1-1.210159 8.238389c-0.977436 3.677021-2.234139 7.260952-3.723565 10.751794-3.304664 8.05221-8.378022 17.966202-14.98735 29.462711-11.636141 20.153797-28.485274 45.799853-50.221587 76.565811l-0.372356 1.349792a4.79409 4.79409 0 0 1-0.558535-0.139634 2384.478115 2384.478115 0 0 1-8.843468 12.287766V837.802187l-239.518336-2.746129v-52.874627c0-16.10442-4.468278-28.95072-13.311746-38.166544-10.984518-11.496508-28.904175-17.268034-53.200439-17.268034-17.873113 0-30.952136-3.397753-39.935238-10.379438-8.843468-6.842051-13.265201-17.407668-13.265201-31.184859 0-27.554383-2.280684-48.592527-6.655873-62.369719a39.842148 39.842148 0 0 0-8.378022-15.592429 15.825152 15.825152 0 0 0-11.636141-5.212992c-14.661538 0-30.719414-8.05221-38.306178-19.083272a28.624908 28.624908 0 0 1-4.79409-21.875946c1.535971-9.122735 6.981685-18.617826 16.383687-28.345641 26.390769-27.507838 48.732161-87.783051 66.372551-179.196578l0.139634-0.977436 0.325812-0.930892c17.640391-54.689865 43.239902-96.300707 76.007276-123.668911C379.178058 200.188178 420.649267 186.178264 469.334883 186.178264z m-16.61641 32.813919c-34.442979 2.792674-63.114431 13.96337-87.271061 34.070622-27.92674 23.272283-50.035408 59.577044-65.720927 107.75067-19.083272 98.488302-43.565714 162.161268-74.657484 194.556286a35.37387 35.37387 0 0 0-7.354042 9.867448 21.317411 21.317411 0 0 0 12.101588 4.514823 45.753308 45.753308 0 0 1 33.512087 14.614994c6.842051 7.074774 12.008498 16.337143 15.825153 28.159462 5.585348 17.314579 8.284933 41.052307 8.284932 72.516434 0 0.837802 0.046545 4.840635 0.930892 5.492259 0.837802 0.651624 5.771526 3.956288 21.317411 3.956288 32.813919 0 58.087618 8.983101 75.122929 26.763125 14.847717 15.452796 22.341392 35.932405 22.341392 60.880293v20.945054l177.660608 2.047961v-103.096214l6.190428-8.610744c0.651624-0.791258 1.163614-1.582515 1.815238-2.327229-81.45299-25.832234-133.117459-55.993113-165.23321-96.161073-17.035311-21.270867-29.416166-46.451477-37.887276-76.845078a319.109544 319.109544 0 0 1-2.885763-11.031062 59.716678 59.716678 0 0 1-3.863199 0.139633c-32.441562 0-59.344322-26.018412-61.857729-59.623589-2.466862-33.651721 20.293431-63.626422 52.362637-68.792868 4.002833-62.323174 30.533235-115.756336 79.265396-159.787495z m87.550329 234.770791H443.92155a64.976214 64.976214 0 0 1-27.694017 43.146812c7.121319 30.57978 17.686935 55.620756 35.048058 77.310524 29.416166 36.770207 79.498119 64.650402 160.951109 89.179389 15.545885-22.52757 27.92674-41.750476 36.909841-57.249816 5.864615-10.332894 10.286349-18.943638 13.032478-25.599512 0.930891-2.187595 1.722149-4.375189 2.327229-6.655873l0.186178-0.605079h-0.093089v-17.407668H571.174393v0.186179h-30.952136V453.762974z m247.384368 55.76039a30.253968 30.253968 0 0 0-33.977533 7.028229c-8.936557 9.308913-11.589597 23.272283-6.748962 35.37387a31.184859 31.184859 0 0 0 28.85763 20.014164c17.221489-0.093089 31.138315-14.568449 31.09177-32.488107a32.488107 32.488107 0 0 0-19.222905-29.928156z m-123.017288-161.928545H571.174393v74.00586h0.139634v32.162295h-0.139634v69.956482h93.414944V347.594819z m-269.958483 64.929669a30.253968 30.253968 0 0 0-33.977533 7.074774c-8.843468 9.308913-11.543052 23.272283-6.702417 35.37387a31.184859 31.184859 0 0 0 28.857631 19.967619c17.221489-0.046545 31.09177-14.568449 31.09177-32.441562a32.488107 32.488107 0 0 0-19.222906-29.974701z m107.005957-191.996334c-35.001514 24.482442-60.833748 52.828082-76.891623 84.245664a193.57885 193.57885 0 0 0-20.572698 77.124346c17.547301 6.748962 31.277948 21.317411 37.328742 39.749059h98.721025V315.572157h0.139633v-0.139633h104.911452c-38.213089-55.388034-85.642001-86.665982-143.636531-94.90437z m274.147494 78.660316a31.836483 31.836483 0 0 0-31.138315 32.395018c0 13.125568 7.633309 24.994432 19.269451 29.9747a30.253968 30.253968 0 0 0 33.977533-7.074774c8.936557-9.308913 11.589597-23.272283 6.702417-35.37387a31.184859 31.184859 0 0 0-28.857631-19.921074z"/>
</svg>