<?xml version="1.0" standalone="no"?><!DOCTYPE svg PUBLIC "-//W3C//DTD SVG 1.1//EN" "http://www.w3.org/Graphics/SVG/1.1/DTD/svg11.dtd"><svg class="icon" width="200px" height="60.01px" viewBox="0 0 3413 1024" version="1.1" xmlns="http://www.w3.org/2000/svg"><path fill="#FFF" d="M95.296 407.552L205.226667 152.746667l120.192 254.826666h90.154666L279.893333 124.650667h-62.250666L270.890667 1.706667H176.853333L0 407.552h95.296z m743.125333-8.085333V370.56h-157.994666V50.624h144.256V21.696H456.746667v28.928h141.226666V370.56h-163.541333v28.928H838.4z m118.912-173.568L979.2 193.152l21.888 32.746667h82.005333l-61.397333-87.637334h54.528V109.333333h-48.938667V59.989333h43.797334V31.061333h-120.64L959.04 0h-61.376L869.76 101.248h61.802667l11.178666-41.258667h4.714667v49.344h-72.533333v28.928h63.957333L875.306667 225.92h82.005333z m304.789334-12.330667V29.354667h-178.133334v184.213333h178.133334z m-71.253334-28.074667h-36.053333V58.282667h36.053333v127.210666z m54.528 222.506667v-170.197333H902.805333v170.176h342.592z m-82.005333-99.136h-178.581333v-42.965333h178.581333v42.965333z m0 70.613333h-178.581333v-41.685333h178.581333v41.685333z m534.037333-189.738666V158.250667h-83.712v-68.053334l83.712-20.842666V36.586667l-83.712 19.562666V2.133333H1531.733333v187.605334h165.696z m-174.293333-48.917334l-33.493333-105.088H1423.146667l18.88 58.282667-48.085334 5.12L1429.12 2.133333h-81.130667l-38.634666 105.493334-19.754667 1.706666 3.008 31.488 158.848-17.450666 5.568 17.450666h66.133333z m-139.093333 265.450667v-75.306667h48.938666v46.805334h-19.306666v28.501333h101.76V156.16H1301.610667v250.133333h82.410666z m48.938666-177.386667h-48.938666V184.213333h48.938666v44.672z m264.448 176.981334v-31.061334h-83.712V288.426667l83.712-20.010667v-31.893333l-83.712 19.989333V202.069333H1531.733333v203.797334h165.696z m-264.448-103.381334h-48.938666v-45.098666h48.938666v45.098666zM153.685333 828.309333V725.76h66.133334v-28.928h-66.133334v-77.866667H78.997333v77.866667H12.437333v28.928h66.56v102.528h74.688zM300.074667 1024l17.173333-29.354667 19.754667 29.354667h69.973333l-53.674667-89.770667 39.082667-65.493333v-175.722667h14.165333V666.24H312.96l11.584-45.952h-69.546667L225.386667 733.866667h70.4l10.304-40.853334h19.754666v154.026667l-12.032 21.248-12.437333-21.269333V742.4h-66.986667v126.336l42.496 64.661333L226.24 1024h73.834667zM70.826667 687.914667l-9.002667-63.808H15.445333l9.450667 63.786666H70.826667z m136.96 0l9.429333-63.808H171.306667l-9.002667 63.786666H207.786667z m12.010666 140.373333L206.08 736.853333H157.546667l14.592 91.477334h47.658666z m-159.274666 0l14.165333-91.456H27.050667l-14.592 91.477333h48.064zM93.589333 1024l22.741334-20.842667L139.093333 1024h85.418667l-63.957333-61.696 48.085333-43.392V884.48h11.157333v-28.074667H89.728v-19.136h-65.706667v19.136H12.48v28.074667h11.584v34.453333l48.085333 43.818667L9.024 1024h84.565333z m22.741334-104.234667l-26.602667-25.941333v-9.365333H143.36v9.365333l-27.050667 25.941333z m417.706666 103.808v-169.749333l29.205334-7.658667v-29.354666l-29.205334 8.106666V724.906667h29.205334v-29.354667h-29.205334v-75.733333h-73.813333v75.733333h-29.653333v29.354667h29.653333v119.552l-29.653333 7.637333V881.066667l29.653333-7.68v119.125333h-24.064v31.061333h97.877333z m116.778667-0.853333V742.784h183.744v-116.138667H572.672V1022.72h78.144z m110.762667-308.864h-111.616V655.146667h111.616v58.709333zM835.84 1022.72v-147.2h-47.658667v-48.490667h48.512V798.08h-48.512v-42.538667h-74.261333v42.538667h-48.512v28.928h48.512v48.490667h-47.658667v147.2h169.578667z m-70.4-28.501333h-27.904v-89.770667h27.904v89.770667z m182.442667-243.776v-58.282667H1181.013333v58.282667h82.005334V663.253333h-154.56v-45.098666h-88v45.098666h-154.986667v87.210667h82.432z m37.333333 271.850666l76.010667-45.930666 74.688 45.930666h139.52l-138.666667-91.029333 75.136-45.098667v-70.186666h54.528v-28.522667H997.674667v-27.221333h-82.410667v27.221333h-53.248v28.501333h53.248v70.186667l74.261333 45.973333-137.386666 90.176h133.098666z m78.570667-139.093333l-66.112-43.413333v-23.829334h132.224v23.829334L1063.786667 883.2z m317.696-111.488l116.330666-115.285333 116.330667 115.285333h97.024l-151.104-151.445333H1430.4l-152.832 151.466666h103.893333z m312.106666 249.728v-28.074667h-155.413333v-81.685333h116.330667V883.626667h-116.330667v-72.32h117.610667v-28.928H1329.536v28.928h123.626667v72.32h-121.493334v28.074666h121.493334v81.706667h-161.408v28.053333h401.813333z m300.501334-198.656l14.592-130.197333h106.453333V664.106667h-103.466667l5.162667-45.525334h-79.424l-24.042667 204.224h80.725334z m-97.450667 7.232v-211.456H1814.613333v211.456h82.005334z m-97.024-23.402667v-164.650666H1743.786667v164.650666h55.808z m306.090667 14.464l-13.738667-101.674666h-70.826667l12.437334 101.674666h72.106666z m19.733333 202.069334v-29.354667h-18.88v-152.298667H1744.64v152.32h-24.042667v29.333334H2125.44z m-273.024-29.354667h-25.322667v-123.797333h25.322667v123.797333z m89.28 0H1916.8v-123.797333h24.896v123.797333z m82.432 0h-20.608v-123.797333h20.608v123.797333z m524.586667 29.781333V619.413333h-69.12v373.12h-23.594667v31.04h92.736z m-246.4-125.504V656h76.416v242.069333h46.357333V627.498667h-168.704v270.570666h45.930667z m-66.112-179.52l-14.592-90.624h-66.56l13.333333 90.624h67.818667z m76.416 305.024l32.213333-65.088L2368 1023.573333h66.112l-41.216-115.712h-23.189333V673.024h-58.368v217.386667l-69.546667 133.162666h70.826667z m154.538666-85.930666V673.877333H2436.266667v263.765334h30.933333z m-228.373333-102.528l-17.173333-91.050667h-66.56l15.893333 91.050667h67.84z m-25.322667 179.52l25.322667-152.725334h-67.84l-24.469333 152.746667h66.986666z m610.453334 8.533333v-160.832h160.981333v-28.501333h-160.981333V656.426667h146.389333v-28.928h-375.210667v28.928h145.962667v177.408h-160.554667v28.501333h160.554667v160.810667h82.858667z m111.189333-217.408l28.757333-123.370667h-78.122666l-30.933334 123.370667h80.298667z m-221.952 0l-31.338667-123.370667h-77.696l28.757334 123.370667h80.277333zM3413.333333 804.48l-67.84-148.48h-81.557333l37.781333 88.490667-179.882666 15.744 74.282666-141.653334h-82.432l-84.138666 149.738667-16.32 1.28 3.434666 31.061333 296.64-28.949333 14.165334 32.768H3413.333333zM3390.570667 1024v-203.349333h-352.426667V1024h352.426667z m-81.557334-28.074667h-188.885333v-146.773333h188.885333v146.773333z" /></svg>