<?xml version="1.0" encoding="UTF-8"?>
<svg width="132px" height="48px" viewBox="0 0 132 48" version="1.1" xmlns="http://www.w3.org/2000/svg" xmlns:xlink="http://www.w3.org/1999/xlink">
    <!-- Generator: Sketch 60 (88103) - https://sketch.com -->
    <title>Down接口测试平台</title>
    <desc>Created with Sketch.</desc>
    <g id="z" stroke="none" stroke-width="1" fill="none" fill-rule="evenodd">
        <g id="控制台" transform="translate(-64.000000, -26.000000)" fill="#FFFFFF" fill-rule="nonzero">
            <path d="M83.976,46.966 L83.976,45.514 L69.302,45.514 L69.302,28.156 L83.976,28.156 L83.976,26.682 L65.078,26.682 L65.078,46.966 L83.976,46.966 Z M74.824,44.37 L77.376,39.794 L79.906,44.37 L84.218,44.37 L80.412,37.792 L84.152,37.792 L84.152,36.318 L79.84,36.318 L79.84,32.072 L83.294,32.072 L83.294,30.62 L75.176,30.62 L75.594,28.728 L71.876,28.728 L70.336,35.284 L74.12,35.284 L74.846,32.072 L75.638,32.072 L75.638,36.318 L70.49,36.318 L70.49,37.792 L74.296,37.792 L70.534,44.37 L74.824,44.37 Z M94.316,47.01 L94.316,29.344 L106.834,29.344 L106.834,27.87 L101.026,27.87 L101.026,26 L96.824,26 L96.824,27.87 L90.114,27.87 L90.114,47.01 L94.316,47.01 Z M89.542,34.932 L88.882,30.114 L86.946,30.114 L87.606,34.932 L89.542,34.932 Z M102.72,47.01 L102.72,38.54 L106.372,31.258 L95.108,31.258 L95.108,32.754 L101.026,32.754 L98.342,37.572 L98.342,45.558 L96.802,45.558 L96.802,47.01 L102.72,47.01 Z M88.684,42.874 L89.542,35.812 L87.606,35.812 L86.726,42.874 L88.684,42.874 Z M125.908,44.612 L125.908,41.312 L128.834,41.312 L128.834,40.08 L125.908,40.08 L125.908,38.056 L128.878,38.056 L128.878,36.846 L125.908,36.846 L125.908,35.24 L128.9,35.24 L128.9,32.028 L129.34,32.028 L129.34,30.84 L128.9,30.84 L128.9,27.738 L125.908,27.738 L125.908,26.044 L122.146,26.044 L122.146,27.738 L120.65,27.738 L120.65,28.948 L121.86,28.948 L121.86,30.84 L120.034,30.84 L120.034,32.028 L121.86,32.028 L121.86,34.03 L120.65,34.03 L120.65,35.24 L122.146,35.24 L122.146,36.846 L120.43,36.846 L120.43,38.056 L122.146,38.056 L122.146,40.08 L120.254,40.08 L120.254,41.312 L122.146,41.312 L122.146,44.612 L125.908,44.612 Z M113.764,46.9 L113.764,32.93 L112.62,32.93 L114.798,26.088 L110.992,26.088 L108.374,34.074 L109.914,34.074 L109.914,46.9 L113.764,46.9 Z M117.922,46.856 L118.186,45.294 L120.21,46.856 L129.186,46.856 L129.186,45.294 L121.904,45.294 L118.604,42.808 L119.968,34.866 L118.406,34.866 L119.968,26.946 L114.886,26.946 L114.886,28.398 L116.316,28.398 L114.798,36.362 L116.338,36.362 L115.59,40.542 L114.38,39.618 L114.38,42.368 L115.15,42.962 L114.446,46.856 L117.922,46.856 Z M126.964,30.84 L125.908,30.84 L125.908,28.948 L126.964,28.948 L126.964,30.84 Z M126.964,34.03 L125.908,34.03 L125.908,32.028 L126.964,32.028 L126.964,34.03 Z M135.324,46.988 L135.324,35.24 L140.934,35.24 L140.934,36.538 L136.028,36.538 L136.028,37.99 L140.934,37.99 L140.934,45.338 L140.274,45.338 L140.274,46.9 L144.872,46.9 L144.872,37.99 L149.8,37.99 L149.8,35.24 L150.724,35.24 L150.724,33.744 L149.8,33.744 L149.8,30.994 L144.872,30.994 L144.872,29.74 L140.934,29.74 L140.934,30.994 L136.028,30.994 L136.028,32.468 L140.934,32.468 L140.934,33.744 L135.324,33.744 L135.324,29.168 L150.416,29.168 L150.416,27.694 L144.322,27.694 L144.322,26.11 L140.098,26.11 L140.098,27.694 L131.122,27.694 L131.122,46.988 L135.324,46.988 Z M146.478,33.744 L144.872,33.744 L144.872,32.468 L146.478,32.468 L146.478,33.744 Z M146.478,36.538 L144.872,36.538 L144.872,35.24 L146.478,35.24 L146.478,36.538 Z M140.186,41.642 L139.614,38.562 L136.116,38.562 L136.666,41.642 L140.186,41.642 Z M149.162,41.642 L149.712,38.562 L146.214,38.562 L145.598,41.642 L149.162,41.642 Z M149.668,46.856 L149.118,42.214 L145.664,42.214 L146.17,46.856 L149.668,46.856 Z M139.658,46.856 L140.186,42.214 L136.732,42.214 L136.16,46.856 L139.658,46.856 Z M160.206,36.912 L160.206,31.61 L163.594,31.61 L163.594,30.114 L160.206,30.114 L160.206,26.088 L156.378,26.088 L156.378,30.114 L152.968,30.114 L152.968,31.61 L156.378,31.61 L156.378,36.912 L160.206,36.912 Z M167.708,47.032 L168.588,45.514 L169.6,47.032 L173.186,47.032 L170.436,42.39 L172.438,39.002 L172.438,29.916 L173.164,29.916 L173.164,28.53 L168.368,28.53 L168.962,26.154 L165.398,26.154 L163.88,32.028 L167.488,32.028 L168.016,29.916 L169.028,29.916 L169.028,37.88 L168.412,38.98 L167.774,37.88 L167.774,32.468 L164.342,32.468 L164.342,39.002 L166.52,42.346 L163.924,47.032 L167.708,47.032 Z M155.96,29.652 L155.498,26.352 L153.122,26.352 L153.606,29.652 L155.96,29.652 Z M162.978,29.652 L163.462,26.352 L161.108,26.352 L160.646,29.652 L162.978,29.652 Z M163.594,36.912 L162.89,32.182 L160.404,32.182 L161.152,36.912 L163.594,36.912 Z M155.432,36.912 L156.158,32.182 L153.716,32.182 L152.968,36.912 L155.432,36.912 Z M157.126,47.032 L158.292,45.954 L159.458,47.032 L163.836,47.032 L160.558,43.842 L163.022,41.598 L163.022,39.816 L163.594,39.816 L163.594,38.364 L156.928,38.364 L156.928,37.374 L153.562,37.374 L153.562,38.364 L152.968,38.364 L152.968,39.816 L153.562,39.816 L153.562,41.598 L156.026,43.864 L152.792,47.032 L157.126,47.032 Z M158.292,41.642 L156.928,40.3 L156.928,39.816 L159.678,39.816 L159.678,40.3 L158.292,41.642 Z M179.698,47.01 L179.698,38.232 L181.194,37.836 L181.194,36.318 L179.698,36.736 L179.698,31.566 L181.194,31.566 L181.194,30.048 L179.698,30.048 L179.698,26.132 L175.914,26.132 L175.914,30.048 L174.396,30.048 L174.396,31.566 L175.914,31.566 L175.914,37.748 L174.396,38.144 L174.396,39.64 L175.914,39.244 L175.914,45.404 L174.682,45.404 L174.682,47.01 L179.698,47.01 Z M185.682,46.966 L185.682,32.49 L195.098,32.49 L195.098,26.484 L181.678,26.484 L181.678,46.966 L185.682,46.966 Z M191.358,30.994 L185.638,30.994 L185.638,27.958 L191.358,27.958 L191.358,30.994 Z M195.164,46.966 L195.164,39.354 L192.722,39.354 L192.722,36.846 L195.208,36.846 L195.208,35.35 L192.722,35.35 L192.722,33.15 L188.916,33.15 L188.916,35.35 L186.43,35.35 L186.43,36.846 L188.916,36.846 L188.916,39.354 L186.474,39.354 L186.474,46.966 L195.164,46.966 Z M191.556,45.492 L190.126,45.492 L190.126,40.85 L191.556,40.85 L191.556,45.492 Z M68.906,58.886 L68.906,55.872 L80.852,55.872 L80.852,58.886 L85.054,58.886 L85.054,54.376 L77.134,54.376 L77.134,52.044 L72.624,52.044 L72.624,54.376 L64.682,54.376 L64.682,58.886 L68.906,58.886 Z M70.82,72.944 L74.714,70.568 L78.542,72.944 L85.692,72.944 L78.586,68.236 L82.436,65.904 L82.436,62.274 L85.23,62.274 L85.23,60.8 L71.458,60.8 L71.458,59.392 L67.234,59.392 L67.234,60.8 L64.506,60.8 L64.506,62.274 L67.234,62.274 L67.234,65.904 L71.04,68.28 L64,72.944 L70.82,72.944 Z M74.846,65.75 L71.458,63.506 L71.458,62.274 L78.234,62.274 L78.234,63.506 L74.846,65.75 Z M91.126,59.986 L97.088,54.024 L103.05,59.986 L108.022,59.986 L100.278,52.154 L93.634,52.154 L85.802,59.986 L91.126,59.986 Z M107.12,72.9 L107.12,71.448 L99.156,71.448 L99.156,67.224 L105.118,67.224 L105.118,65.772 L99.156,65.772 L99.156,62.032 L105.184,62.032 L105.184,60.536 L88.464,60.536 L88.464,62.032 L94.8,62.032 L94.8,65.772 L88.574,65.772 L88.574,67.224 L94.8,67.224 L94.8,71.448 L86.528,71.448 L86.528,72.9 L107.12,72.9 Z M122.52,62.626 L123.268,55.894 L128.724,55.894 L128.724,54.42 L123.422,54.42 L123.686,52.066 L119.616,52.066 L118.384,62.626 L122.52,62.626 Z M117.526,63 L117.526,52.066 L113.324,52.066 L113.324,63 L117.526,63 Z M112.554,61.79 L112.554,53.276 L109.694,53.276 L109.694,61.79 L112.554,61.79 Z M128.24,62.538 L127.536,57.28 L123.906,57.28 L124.544,62.538 L128.24,62.538 Z M129.252,72.988 L129.252,71.47 L128.284,71.47 L128.284,63.594 L109.738,63.594 L109.738,71.47 L108.506,71.47 L108.506,72.988 L129.252,72.988 Z M115.26,71.47 L113.962,71.47 L113.962,65.068 L115.26,65.068 L115.26,71.47 Z M119.836,71.47 L118.56,71.47 L118.56,65.068 L119.836,65.068 L119.836,71.47 Z M124.06,71.47 L123.004,71.47 L123.004,65.068 L124.06,65.068 L124.06,71.47 Z M150.944,73.01 L150.944,52.11 L147.402,52.11 L147.402,71.404 L146.192,71.404 L146.192,73.01 L150.944,73.01 Z M138.316,66.52 L138.316,54.002 L142.232,54.002 L142.232,66.52 L144.608,66.52 L144.608,52.528 L135.962,52.528 L135.962,66.52 L138.316,66.52 Z M134.928,57.236 L134.18,52.55 L130.77,52.55 L131.452,57.236 L134.928,57.236 Z M138.844,73.01 L140.494,69.644 L141.682,73.01 L145.07,73.01 L142.958,67.026 L141.77,67.026 L141.77,54.882 L138.778,54.882 L138.778,66.124 L135.214,73.01 L138.844,73.01 Z M146.764,68.566 L146.764,54.926 L145.18,54.926 L145.18,68.566 L146.764,68.566 Z M135.06,63.264 L134.18,58.556 L130.77,58.556 L131.584,63.264 L135.06,63.264 Z M133.762,72.548 L135.06,64.65 L131.584,64.65 L130.33,72.548 L133.762,72.548 Z M165.046,72.988 L165.046,64.672 L173.296,64.672 L173.296,63.198 L165.046,63.198 L165.046,54.024 L172.548,54.024 L172.548,52.528 L153.32,52.528 L153.32,54.024 L160.8,54.024 L160.8,63.198 L152.572,63.198 L152.572,64.672 L160.8,64.672 L160.8,72.988 L165.046,72.988 Z M170.744,61.746 L172.218,55.366 L168.214,55.366 L166.63,61.746 L170.744,61.746 Z M159.37,61.746 L157.764,55.366 L153.782,55.366 L155.256,61.746 L159.37,61.746 Z M195.252,61.68 L191.776,54.002 L187.596,54.002 L189.532,58.578 L180.314,59.392 L184.12,52.066 L179.896,52.066 L175.584,59.81 L174.748,59.876 L174.924,61.482 L190.126,59.986 L190.852,61.68 L195.252,61.68 Z M194.086,73.032 L194.086,62.516 L176.024,62.516 L176.024,73.032 L194.086,73.032 Z M189.906,71.58 L180.226,71.58 L180.226,63.99 L189.906,63.99 L189.906,71.58 Z" id="Down接口测试平台"></path>
        </g>
    </g>
</svg>