<?xml version="1.0" standalone="no"?><!DOCTYPE svg PUBLIC "-//W3C//DTD SVG 1.1//EN"
        "http://www.w3.org/Graphics/SVG/1.1/DTD/svg11.dtd">
<svg class="icon" width="200px" height="200.00px" viewBox="0 0 1024 1024" version="1.1"
     xmlns="http://www.w3.org/2000/svg">
    <path fill="white"
          d="M409.6 102.4c-25.6 0-51.2 25.1904-51.2 50.432v718.336c0 25.2416 25.6 50.432 51.2 50.432h204.8c25.6 0 51.2-25.1904 51.2-50.432V152.832C665.6 127.5904 640 102.4 614.4 102.4H409.6z m153.6 716.8H460.8v-51.2h102.4v51.2z m0-102.4H460.8v-51.2h102.4v51.2z m0-102.4H460.8v-51.2h102.4v51.2z m0-102.4H460.8V460.8h102.4v51.2zM250.3168 409.6H108.032C79.6672 409.6 51.2 435.2 51.2 460.8v409.6c0 32 28.4672 51.2 56.8832 51.2H250.368C278.7328 921.6 307.2 896 307.2 870.4V460.8c0-25.6-28.4672-51.2-56.8832-51.2z m665.6-102.4H773.632C745.2672 307.2 716.8 332.8 716.8 358.4v512c0 32 28.4672 51.2 56.8832 51.2h142.2336c28.416 0 56.8832-25.6 56.8832-51.2V358.4c0-25.6-28.4672-51.2-56.8832-51.2z"/>
</svg>