<?xml version="1.0" standalone="no"?><!DOCTYPE svg PUBLIC "-//W3C//DTD SVG 1.1//EN"
        "http://www.w3.org/Graphics/SVG/1.1/DTD/svg11.dtd">
<svg class="icon" width="200px" height="200.00px" viewBox="0 0 1024 1024" version="1.1"
     xmlns="http://www.w3.org/2000/svg">
    <path fill="white"
          d="M224 665.6h38.3488a57.6 57.6 0 0 1 57.6512 57.8048v191.5904A57.7024 57.7024 0 0 1 262.3488 972.8H108.8512A57.6 57.6 0 0 1 51.2 914.9952V723.456A57.7024 57.7024 0 0 1 108.8512 665.6h38.3488v-148.5824c0-0.8704 0-1.6896 0.1024-2.56a38.5024 38.5024 0 0 1 38.4-40.8576H473.6V358.4H416.2048A57.6512 57.6512 0 0 1 358.4 300.5952V109.056A57.6512 57.6512 0 0 1 416.2048 51.2h191.5904A57.6512 57.6512 0 0 1 665.6 109.0048V300.544A57.6512 57.6512 0 0 1 607.7952 358.4H550.4v115.2h287.9488a38.3488 38.3488 0 0 1 38.4 40.9088 36.096 36.096 0 0 1 0.0512 2.5088V665.6h38.3488A57.6 57.6 0 0 1 972.8 723.4048v191.5904A57.7024 57.7024 0 0 1 915.1488 972.8h-153.4976a57.6 57.6 0 0 1-57.6512-57.8048V723.456A57.7024 57.7024 0 0 1 761.6512 665.6h38.3488v-115.2H550.4V665.6h38.3488a57.6 57.6 0 0 1 57.6512 57.8048v191.5904A57.7024 57.7024 0 0 1 588.7488 972.8H435.2a57.6 57.6 0 0 1-57.6512-57.8048V723.456A57.7024 57.7024 0 0 1 435.2512 665.6h38.3488v-115.2H224V665.6z"/>
</svg>