<?xml version="1.0" standalone="no"?><!DOCTYPE svg PUBLIC "-//W3C//DTD SVG 1.1//EN"
        "http://www.w3.org/Graphics/SVG/1.1/DTD/svg11.dtd">
<svg class="icon" width="200px" height="200.00px" viewBox="0 0 1024 1024" version="1.1"
     xmlns="http://www.w3.org/2000/svg">
    <path fill="white" d="M788.48 806.5024L611.1744 972.8v-120.2688a46.08 46.08 0 0 1 46.08-46.08H788.48z m-39.5776-570.8288a42.3936 42.3936 0 0 1 39.5776 46.08V742.4h-197.12a42.3936 42.3936 0 0 0-39.6288 46.08V972.8H91.0848a41.984 41.984 0 0 1-39.68-46.08V281.8048a42.3936 42.3936 0 0 1 39.6288-46.08z m173.6704-184.32a46.08 46.08 0 0 1 50.2272 46.1312v598.8864a46.08 46.08 0 0 1-50.176 46.08h-59.904V208.0256a46.08 46.08 0 0 0-48.896-46.08H235.7248V97.4848a46.08 46.08 0 0 1 46.0288-46.08z m-687.104 506.88H143.36v92.1088h92.16v-92.1088z m368.5888 0h-276.48v92.0576h276.48v-92.0576z m92.16-184.32h-368.64v92.0576h368.5888v0.1024-92.16z m-460.6976 0H143.36v92.16h92.16v-92.16z"/>
</svg>