<?xml version="1.0" standalone="no"?><!DOCTYPE svg PUBLIC "-//W3C//DTD SVG 1.1//EN"
        "http://www.w3.org/Graphics/SVG/1.1/DTD/svg11.dtd">
<svg class="icon" width="200px" height="200.00px" viewBox="0 0 1024 1024" version="1.1"
     xmlns="http://www.w3.org/2000/svg">
    <path fill="white"
          d="M462.0288 185.344v228.2496c0 31.488-25.5488 57.0368-57.0368 57.088H176.7424A125.696 125.696 0 0 1 51.2 345.088V185.344c0-69.2224 56.32-125.5936 125.5424-125.5936h159.744c69.2224 0 125.5424 56.32 125.5424 125.5424zM404.992 561.9712H176.7424A125.696 125.696 0 0 0 51.2 687.5136v159.744C51.2 916.48 107.52 972.8 176.7424 972.8h159.744c69.2224 0 125.5424-56.32 125.5424-125.5424V619.008c0-31.488-25.5488-57.0368-57.0368-57.0368z m433.664 0h-228.2496c-31.488 0-57.0368 25.5488-57.088 57.0368v228.2496C553.3184 916.48 609.6896 972.8 678.912 972.8h159.744c69.2224 0 125.5936-56.32 125.5936-125.5424v-159.744c0-69.2224-56.32-125.5424-125.5424-125.5424zM710.5024 501.248c26.624 26.624 69.8368 26.624 96.512 0l187.8016-187.8016c26.624-26.624 26.624-69.8368 0-96.512L807.0144 29.184a68.352 68.352 0 0 0-96.512 0l-187.8016 187.8016c-26.624 26.624-26.624 69.8368 0 96.512l187.8016 187.8016z"/>
</svg>