<?xml version="1.0" standalone="no"?><!DOCTYPE svg PUBLIC "-//W3C//DTD SVG 1.1//EN"
        "http://www.w3.org/Graphics/SVG/1.1/DTD/svg11.dtd">
<svg class="icon" width="200px" height="200.00px" viewBox="0 0 1024 1024" version="1.1"
     xmlns="http://www.w3.org/2000/svg">
    <path fill="white"
          d="M858.2656 848.6912h-127.7952c-28.16-124.672-121.7024-221.4912-237.6192-242.8416a273.664 273.664 0 0 0 67.9424-84.992c7.5264-0.8192 15.104-1.2288 22.6304-1.2288h160.3584c125.952 0 229.0176 113.92 229.0176 253.1328 0 41.7792-76.7488 75.9296-114.5344 75.9296zM663.6032 456.192a167.936 167.936 0 0 1-74.752-17.5616c3.4304-18.432 5.12-37.2224 5.12-56.064 0-88.2688-37.0688-166.912-94.9248-218.0096C528.896 97.4336 591.36 51.2 663.6032 51.2c101.2224 0 183.2448 90.624 183.2448 202.496S764.8256 456.192 663.552 456.192z m-303.2064 124.1088c-101.1712 0-183.2448-90.624-183.2448-202.496s82.0736-202.496 183.296-202.496c101.12 0 183.1936 90.624 183.1936 202.496 0 111.8208-82.0736 202.496-183.2448 202.496z m80.1792 63.4368c125.952 0 229.0176 113.92 229.0176 253.1328 0 41.7792-76.7488 75.9296-114.5344 75.9296H165.7344C127.9488 972.8 51.2 938.6496 51.2 896.8704c0-139.264 103.0656-253.1328 229.0176-253.1328h160.3584z"/>
</svg>